<?xml version="1.0" encoding="utf-8"?>
<!-- Generator: Adobe Illustrator 21.0.2, SVG Export Plug-In . SVG Version: 6.00 Build 0)  -->
<svg version="1.1" id="Layer_1" xmlns="http://www.w3.org/2000/svg" xmlns:xlink="http://www.w3.org/1999/xlink" x="0px" y="0px"
	 viewBox="0 0 216 34.2" style="enable-background:new 0 0 216 34.2;" xml:space="preserve">
<style type="text/css">
	.st0{fill:#FFFFFF;}
</style>
<g>
	<g>
		<path class="st0" d="M22.1,4.9c-6.3,0-11.5,5.1-11.5,11.5c0,6.3,5.1,11.5,11.5,11.5s11.5-5.1,11.5-11.5S28.5,4.9,22.1,4.9z
			 M15.9,9.4c0.5,0.1,1.2,0.3,1.9,0.4c3.4,0.6,4.5,1.3,4.5,3.1c0,2.1-1.9,3.6-4.3,3.6c-1.8,0-3.5-0.9-4.5-2.3
			c-0.1-0.2-0.2-0.4-0.4-0.6C13.7,12,14.6,10.5,15.9,9.4z M22.5,24.1c1.1,0,2-0.9,2-2.1c0-0.5-0.1-0.9-0.7-1.5
			c-0.2-0.2-0.2-0.3-0.2-0.5c0-1,1.9-2,3.6-2c1.1,0,2.1,0.4,2.6,1c0.4,0.4,0.5,0.8,0.6,1.8c-1.6,3-4.7,5-8.3,5
			c-5.2,0-9.3-4.2-9.3-9.3c0-0.2,0-0.4,0-0.5l0.2-0.2c1.9,1.5,3.2,2,5,2c3.5,0,6.1-2.7,6.1-6.4c0-1.5-0.4-3-1.2-3.9
			c-0.1-0.1-0.1-0.1-0.2-0.2c4.9,0.3,8.8,4.4,8.8,9.3c0,0.5,0,0.9-0.1,1.4c-1-0.4-2.2-0.6-3.4-0.6c-4,0-7.5,2.3-7.5,4.8
			C20.4,23.2,21.3,24.1,22.5,24.1z"/>
	</g>
	<g>
		<path class="st0" d="M42.8,15.2l-1.5-0.9c-0.7-0.4-1.1-0.8-1.4-1.1c-0.3-0.4-0.4-0.7-0.4-1.1c0-0.5,0.2-0.8,0.6-1.1
			c0.4-0.3,0.9-0.4,1.6-0.4c1.1,0,2.2,0.5,3.2,1.4V9.8c-0.9-0.6-2-1-3.1-1c-1.2,0-2.2,0.3-2.9,1s-1.1,1.5-1.1,2.6
			c0,0.7,0.2,1.3,0.6,1.9c0.4,0.6,1,1.1,2,1.7l1.5,0.9c1.2,0.7,1.8,1.5,1.8,2.4c0,0.5-0.2,0.9-0.6,1.3c-0.4,0.3-0.9,0.5-1.5,0.5
			c-1.4,0-2.6-0.7-3.6-2v2.5c1.1,0.8,2.3,1.2,3.7,1.3c1.2,0,2.1-0.3,2.9-1c0.7-0.7,1.1-1.6,1.1-2.7C45.3,17.5,44.4,16.2,42.8,15.2z"
			/>
		
			<rect x="41.3" y="14.8" transform="matrix(3.841591e-03 -1 1 3.841591e-03 32.1649 63.7832)" class="st0" width="13.6" height="1.8"/>
		<polygon class="st0" points="51.3,18 55.1,13.6 53,13.6 49,18 53.5,22.6 55.9,22.6 		"/>
		<polygon class="st0" points="62.2,13.7 59.9,18.7 57.5,13.6 55.5,13.6 58.9,20.7 55.8,27.2 57.8,27.2 64.2,13.7 		"/>
		<polygon class="st0" points="70.1,9 64.2,22.6 66.2,22.6 67.9,18.6 67.9,18.6 70.7,12 75.5,22.7 77.5,22.7 71.4,9 		"/>
		<path class="st0" d="M80.8,19.7v-4.4h2.8v-1.6h-2.8v-1.9l-3.3,3.3v0.2h1.6v4c0,0.8,0,1.4,0.1,1.7s0.2,0.5,0.3,0.7
			c0.1,0.2,0.2,0.3,0.4,0.5c0.5,0.5,1.2,0.7,2,0.7s1.5-0.2,2.2-0.6v-1.7c-0.7,0.4-1.4,0.6-2,0.6C81.2,21.3,80.8,20.7,80.8,19.7z"/>
		
			<rect x="79.5" y="15.1" transform="matrix(3.841591e-03 -1 1 3.841591e-03 70.0243 102.2159)" class="st0" width="13.6" height="1.8"/>
		<path class="st0" d="M95.4,21.2v-3.8c0-0.8,0-1.3-0.1-1.5c0-0.3-0.1-0.5-0.3-0.8c-0.2-0.3-0.3-0.5-0.5-0.6
			c-0.6-0.5-1.4-0.8-2.3-0.8c-1.3,0-2.3,0.4-3,1.2v1.9c0.9-1,1.9-1.5,2.8-1.5c1.1,0,1.6,0.5,1.6,1.6v0.5l-2.3,0.8
			c-0.7,0.3-1.3,0.6-1.7,1.1c-0.4,0.4-0.6,0.9-0.6,1.5s0.2,1.1,0.6,1.6c0.4,0.4,0.9,0.6,1.6,0.6c0.9,0,1.7-0.3,2.4-0.9
			c0.1,0.6,0.6,0.9,1.3,0.9c0.3,0,0.5,0,0.8-0.1c0.2-0.1,0.6-0.3,1-0.5v-1.1c-0.5,0.3-0.8,0.5-1,0.5C95.5,21.6,95.4,21.5,95.4,21.2z
			 M93.6,21c-0.5,0.5-1,0.7-1.6,0.7c-0.4,0-0.7-0.1-0.9-0.4c-0.2-0.2-0.4-0.5-0.4-0.9s0.1-0.7,0.4-0.9s0.7-0.5,1.3-0.7l1.2-0.5V21z"
			/>
		<path class="st0" d="M101.7,17.6l-0.6-0.4c-0.5-0.3-0.8-0.5-1-0.7s-0.3-0.4-0.3-0.6c0-0.2,0.1-0.4,0.3-0.6
			c0.2-0.1,0.5-0.2,0.8-0.2c0.7,0,1.5,0.3,2.6,1v-1.8c-0.9-0.5-1.8-0.7-2.7-0.8c-0.8,0-1.5,0.2-2.1,0.6c-0.5,0.4-0.8,1-0.8,1.7
			c0,0.5,0.2,1,0.5,1.5c0.4,0.5,1.1,1,2.2,1.6c0.6,0.3,0.9,0.6,1.1,0.7c0.2,0.2,0.3,0.4,0.3,0.6c0,0.3-0.1,0.5-0.4,0.7
			s-0.6,0.3-1,0.3s-0.8-0.1-1.3-0.3s-1-0.5-1.5-0.9v1.9c0.6,0.3,1.2,0.5,1.6,0.6s0.9,0.2,1.4,0.2c0.9,0,1.6-0.2,2.2-0.7
			s0.9-1.1,0.9-1.8C103.9,19.4,103.2,18.5,101.7,17.6z"/>
	</g>
	<g>
		<rect x="100.4" y="15.1" transform="matrix(3.841591e-03 -1 1 3.841591e-03 90.7343 123.1)" width="13.6" height="1.9"/>
		<path d="M117,14.1c-0.5-0.3-1-0.4-1.6-0.4c-1,0-1.9,0.4-2.7,1.3v-1.1h-1.8v9h1.8v-6.4c0.6-0.8,1.3-1.3,2.1-1.2
			c0.7,0,1.1,0.2,1.4,0.6c0.3,0.4,0.4,1,0.4,2V23h1.8v-5.1c0-1.1-0.1-1.9-0.4-2.4C117.8,14.8,117.5,14.4,117,14.1z"/>
		<path d="M123,19.9v-4.4h2.8v-1.6H123V12l-3.3,3.3v0.2h1.6v4c0,0.8,0,1.4,0.1,1.7s0.2,0.5,0.3,0.7c0.1,0.2,0.2,0.3,0.4,0.5
			c0.5,0.5,1.2,0.7,2,0.7s1.5-0.2,2.2-0.6v-1.7c-0.7,0.4-1.4,0.6-2,0.6C123.4,21.4,123,20.9,123,19.9z"/>
		<path d="M131.3,13.8c-1.2,0-2.2,0.4-3,1.3c-0.8,0.9-1.2,2-1.2,3.3c0,0.9,0.2,1.7,0.5,2.4c0.4,0.7,0.9,1.2,1.5,1.7
			c0.6,0.4,1.4,0.6,2.4,0.6c0.7,0,1.3-0.1,1.9-0.2c0.5-0.2,1.1-0.4,1.6-0.8v-1.7c-1,0.7-2.1,1.1-3.2,1.1c-0.8,0-1.5-0.3-2-0.8
			s-0.8-1.2-0.9-2h6.3v-0.2c0-1.4-0.3-2.5-1-3.3C133.4,14.2,132.5,13.8,131.3,13.8z M128.9,17.5c0.1-0.7,0.4-1.3,0.8-1.6
			c0.4-0.4,0.9-0.6,1.6-0.6c0.6,0,1.1,0.2,1.5,0.6c0.4,0.4,0.6,0.9,0.6,1.6H128.9z"/>
		<path d="M139.1,15.9l-0.1,0.2V14h-1.8v9h1.8v-4.7c0-0.7,0.2-1.4,0.6-1.9c0.4-0.5,0.9-0.8,1.5-0.8c0.5,0,1.1,0.3,1.7,0.9l0.9-1.6
			c-0.7-0.7-1.4-1-2.1-1C140.8,13.8,140,14.5,139.1,15.9z"/>
		<path d="M151,14.3c-0.5-0.3-1-0.4-1.6-0.4c-1,0-1.9,0.4-2.7,1.3v-1.1h-1.8v9h1.8v-6.4c0.6-0.8,1.3-1.3,2.1-1.2
			c0.7,0,1.1,0.2,1.4,0.6c0.3,0.4,0.4,1,0.4,2v5.1h1.8v-5.1c0-1.1-0.1-1.9-0.4-2.4C151.9,14.9,151.5,14.6,151,14.3z"/>
		<path d="M160.6,21.4v-3.8c0-0.8,0-1.3-0.1-1.5c0-0.3-0.1-0.5-0.3-0.8s-0.3-0.5-0.5-0.6c-0.6-0.5-1.4-0.8-2.3-0.8
			c-1.3,0-2.3,0.4-3,1.2V17c0.9-1,1.9-1.5,2.8-1.5c1.1,0,1.6,0.5,1.6,1.6v0.5l-2.3,0.8c-0.7,0.3-1.3,0.6-1.7,1.1
			c-0.4,0.4-0.6,0.9-0.6,1.5s0.2,1.1,0.6,1.6c0.4,0.4,0.9,0.6,1.6,0.6c0.9,0,1.7-0.3,2.4-0.9c0.1,0.6,0.6,0.9,1.3,0.9
			c0.3,0,0.5,0,0.8-0.1c0.2-0.1,0.6-0.3,1-0.5v-1.1c-0.5,0.3-0.8,0.5-1,0.5C160.7,21.9,160.6,21.7,160.6,21.4z M158.8,21.2
			c-0.5,0.5-1,0.7-1.6,0.7c-0.4,0-0.7-0.1-0.9-0.4c-0.2-0.2-0.4-0.5-0.4-0.9s0.1-0.7,0.4-0.9c0.3-0.2,0.7-0.5,1.3-0.7l1.2-0.5V21.2z
			"/>
		<path d="M165.5,20v-4.4h2.8V14h-2.8v-1.9l-3.3,3.3v0.2h1.6v4c0,0.8,0,1.4,0.1,1.7s0.2,0.5,0.3,0.7s0.2,0.3,0.4,0.5
			c0.5,0.5,1.2,0.7,2,0.7s1.5-0.2,2.2-0.6v-1.7c-0.7,0.4-1.4,0.6-2,0.6C166,21.6,165.5,21.1,165.5,20z"/>
		<path d="M171.1,10.3c-0.3,0-0.5,0.1-0.7,0.3c-0.2,0.2-0.3,0.5-0.3,0.7c0,0.3,0.1,0.5,0.3,0.7s0.4,0.3,0.7,0.3s0.5-0.1,0.8-0.3
			c0.2-0.2,0.3-0.5,0.3-0.7c0-0.3-0.1-0.5-0.3-0.7C171.6,10.4,171.4,10.3,171.1,10.3z"/>
		<rect x="166.6" y="17.6" transform="matrix(3.841591e-03 -1 1 3.841591e-03 151.9032 189.5368)" width="9" height="1.8"/>
		<path d="M178.8,14.1c-1.4,0-2.5,0.4-3.4,1.3c-0.9,0.9-1.4,2-1.4,3.3s0.4,2.4,1.3,3.3c0.9,0.9,2,1.3,3.4,1.3s2.5-0.4,3.5-1.3
			c0.9-0.9,1.4-1.9,1.4-3.2s-0.4-2.4-1.3-3.3C181.3,14.5,180.2,14.1,178.8,14.1z M180.9,20.8c-0.6,0.5-1.3,0.8-2.1,0.8
			c-0.9,0-1.6-0.3-2.1-0.8c-0.6-0.5-0.8-1.2-0.8-2.1c0-0.9,0.3-1.6,0.8-2.1c0.5-0.6,1.2-0.8,2.1-0.8c0.9,0,1.6,0.3,2.2,0.8
			c0.6,0.6,0.9,1.3,0.9,2.1C181.7,19.5,181.4,20.2,180.9,20.8z"/>
		<path d="M191.5,14.4c-0.5-0.3-1-0.4-1.6-0.4c-1,0-1.9,0.4-2.7,1.3v-1.1h-1.8v9h1.8v-6.4c0.6-0.8,1.3-1.3,2.1-1.2
			c0.7,0,1.1,0.2,1.4,0.6c0.3,0.4,0.4,1,0.4,2v5.1h1.8v-5.1c0-1.1-0.1-1.9-0.4-2.4C192.4,15.1,192,14.7,191.5,14.4z"/>
		<path d="M201.1,21.6v-3.8c0-0.8,0-1.3-0.1-1.5c0-0.3-0.1-0.5-0.3-0.8s-0.3-0.5-0.5-0.6c-0.6-0.5-1.4-0.8-2.3-0.8
			c-1.3,0-2.3,0.4-3,1.2v1.9c0.9-1,1.9-1.5,2.8-1.5c1.1,0,1.6,0.5,1.6,1.6v0.5l-2.3,0.8c-0.7,0.3-1.3,0.6-1.7,1.1
			c-0.4,0.4-0.6,0.9-0.6,1.5s0.2,1.1,0.6,1.6c0.4,0.4,0.9,0.6,1.6,0.6c0.9,0,1.7-0.3,2.4-0.9c0.1,0.6,0.6,0.9,1.3,0.9
			c0.3,0,0.5,0,0.8-0.1c0.2-0.1,0.6-0.3,1-0.5v-1.1c-0.5,0.3-0.8,0.5-1,0.5C201.2,22,201.1,21.9,201.1,21.6z M199.3,21.4
			c-0.5,0.5-1,0.7-1.6,0.7c-0.4,0-0.7-0.1-0.9-0.4c-0.2-0.2-0.4-0.5-0.4-0.9s0.1-0.7,0.4-0.9c0.3-0.2,0.7-0.5,1.3-0.7l1.2-0.5V21.4z
			"/>
		<rect x="198.1" y="15.5" transform="matrix(3.841591e-03 -1 1 3.841591e-03 187.7584 221.2753)" width="13.6" height="1.8"/>
	</g>
</g>
</svg>
